<svg width="108" height="94" viewBox="0 0 108 94" fill="none" xmlns="http://www.w3.org/2000/svg">
<ellipse cx="54" cy="47" rx="54" ry="47" fill="#D9DBE6"/>
<path d="M37.3333 62.5C33.6667 62.5 30.7 64.825 30.7 67.6667C30.7 70.5083 33.6667 72.8333 37.3333 72.8333C41 72.8333 44 70.5083 44 67.6667C44 64.825 41 62.5 37.3333 62.5ZM17.3333 21.1667V26.3333H24L36 45.9408L31.5 52.27C30.9667 52.9933 30.6667 53.8458 30.6667 54.75C30.6667 57.5917 33.6667 59.9167 37.3333 59.9167H77.3333V54.75H38.7333C38.2667 54.75 37.9 54.4658 37.9 54.1042L38 53.7942L41 49.5833H65.8333C68.3333 49.5833 70.5333 48.5242 71.6667 46.9225L83.6 30.1567C83.875 29.7624 84.0134 29.3196 84.0016 28.8715C83.9898 28.4234 83.8282 27.9854 83.5327 27.6002C83.2371 27.2149 82.8177 26.8957 82.3154 26.6737C81.813 26.4516 81.245 26.3344 80.6667 26.3333H31.3667L28.2333 21.1667H17.3333ZM70.6667 62.5C67 62.5 64.0333 64.825 64.0333 67.6667C64.0333 70.5083 67 72.8333 70.6667 72.8333C74.3333 72.8333 77.3333 70.5083 77.3333 67.6667C77.3333 64.825 74.3333 62.5 70.6667 62.5Z" fill="#1D08DD"/>
</svg>
